# xmcd
#
# Track frame offsets:
#	150
#	12859
#	28564
#	44323
#	57121
#	74908
#	94058
#	106199
#	121385
#	136695
#	157666
#
# Disc length: 2469 seconds
#
# Revision: 0
# Processed by: cddbd v1.5.2PL0 Copyright (c) Steve Scherf et al.
# Submitted via: EasyCDDAExtractor 8.2.3.1
#
DISCID=8509a30b
DTITLE=Leeann Atherton - Only Glory
DYEAR=1995
DGENRE=Country
TTITLE0=Brand New Girl
TTITLE1=One Way
TTITLE2=One Yellow Rose
TTITLE3=Open Book
TTITLE4=Just Like Us
TTITLE5=Only Glory
TTITLE6=Speed Of Love
TTITLE7=When Love Comes Around
TTITLE8=All For One
TTITLE9=Benefit Of The Doubt
TTITLE10=Exceptional Man
EXTD=
EXTT0=
EXTT1=
EXTT2=
EXTT3=
EXTT4=
EXTT5=
EXTT6=
EXTT7=
EXTT8=
EXTT9=
EXTT10=
PLAYORDER=
